<svg width="15" height="14" viewBox="0 0 15 14" fill="none" xmlns="http://www.w3.org/2000/svg">
<path fill-rule="evenodd" clip-rule="evenodd" d="M7 0.03C5.14348 0.03 3.36301 0.767498 2.05025 2.08025C0.737498 3.39301 0 5.17348 0 7.03V7.46C0.09 8.97 1.91 9.25 3 8.16C3.35648 7.84319 3.82054 7.67456 4.29724 7.68859C4.77395 7.70262 5.22728 7.89826 5.56451 8.23549C5.90174 8.57272 6.09738 9.02605 6.11141 9.50276C6.12544 9.97946 5.95681 10.4435 5.64 10.8C4.54 11.96 4.85 13.87 6.44 14H7.04C8.89652 14 10.677 13.2625 11.9897 11.9497C13.3025 10.637 14.04 8.85652 14.04 7C14.04 5.14348 13.3025 3.36301 11.9897 2.05025C10.677 0.737498 8.89652 0 7.04 0L7 0.03V0.03ZM7 13.03H6.48C6.34753 13.0258 6.22048 12.9764 6.12 12.89C6.04052 12.8077 5.98817 12.703 5.97 12.59C5.93813 12.3951 5.95326 12.1954 6.01414 12.0076C6.07502 11.8197 6.17988 11.6491 6.32 11.51C6.84047 10.9743 7.13163 10.2569 7.13163 9.51C7.13163 8.76312 6.84047 8.04566 6.32 7.51C6.05347 7.24331 5.73701 7.03176 5.3887 6.88742C5.04038 6.74308 4.66704 6.66879 4.29 6.66879C3.91296 6.66879 3.53962 6.74308 3.1913 6.88742C2.84299 7.03176 2.52653 7.24331 2.26 7.51C2.15067 7.63777 2.01089 7.73592 1.85357 7.79534C1.69626 7.85477 1.5265 7.87357 1.36 7.85C1.27594 7.83394 1.19901 7.79198 1.14 7.73C1.07129 7.6494 1.03558 7.54582 1.04 7.44V7.07C1.04 5.88331 1.39189 4.72327 2.05118 3.73658C2.71047 2.74988 3.64754 1.98085 4.7439 1.52672C5.84026 1.0726 7.04666 0.953777 8.21054 1.18529C9.37443 1.4168 10.4435 1.98824 11.2826 2.82736C12.1218 3.66647 12.6932 4.73557 12.9247 5.89946C13.1562 7.06334 13.0374 8.26974 12.5833 9.3661C12.1292 10.4625 11.3601 11.3995 10.3734 12.0588C9.38673 12.7181 8.22669 13.07 7.04 13.07L7 13.03V13.03ZM8 3.024C8 3.28922 7.89464 3.54357 7.70711 3.73111C7.51957 3.91864 7.26522 4.024 7 4.024C6.73478 4.024 6.48043 3.91864 6.29289 3.73111C6.10536 3.54357 6 3.28922 6 3.024C6 2.75878 6.10536 2.50443 6.29289 2.31689C6.48043 2.12936 6.73478 2.024 7 2.024C7.26522 2.024 7.51957 2.12936 7.70711 2.31689C7.89464 2.50443 8 2.75878 8 3.024V3.024ZM11 10.031C11 10.2962 10.8946 10.5506 10.7071 10.7381C10.5196 10.9256 10.2652 11.031 10 11.031C9.73478 11.031 9.48043 10.9256 9.29289 10.7381C9.10536 10.5506 9 10.2962 9 10.031C9 9.76578 9.10536 9.51143 9.29289 9.32389C9.48043 9.13636 9.73478 9.031 10 9.031C10.2652 9.031 10.5196 9.13636 10.7071 9.32389C10.8946 9.51143 11 9.76578 11 10.031V10.031ZM4 5.031C4.26522 5.031 4.51957 4.92564 4.70711 4.73811C4.89464 4.55057 5 4.29622 5 4.031C5 3.76578 4.89464 3.51143 4.70711 3.32389C4.51957 3.13636 4.26522 3.031 4 3.031C3.73478 3.031 3.48043 3.13636 3.29289 3.32389C3.10536 3.51143 3 3.76578 3 4.031C3 4.29622 3.10536 4.55057 3.29289 4.73811C3.48043 4.92564 3.73478 5.031 4 5.031ZM11 4.031C11 4.29622 10.8946 4.55057 10.7071 4.73811C10.5196 4.92564 10.2652 5.031 10 5.031C9.73478 5.031 9.48043 4.92564 9.29289 4.73811C9.10536 4.55057 9 4.29622 9 4.031C9 3.76578 9.10536 3.51143 9.29289 3.32389C9.48043 3.13636 9.73478 3.031 10 3.031C10.2652 3.031 10.5196 3.13636 10.7071 3.32389C10.8946 3.51143 11 3.76578 11 4.031ZM12 7.027C12 7.29222 11.8946 7.54657 11.7071 7.73411C11.5196 7.92164 11.2652 8.027 11 8.027C10.7348 8.027 10.4804 7.92164 10.2929 7.73411C10.1054 7.54657 10 7.29222 10 7.027C10 6.76178 10.1054 6.50743 10.2929 6.31989C10.4804 6.13236 10.7348 6.027 11 6.027C11.2652 6.027 11.5196 6.13236 11.7071 6.31989C11.8946 6.50743 12 6.76178 12 7.027Z" fill="#303030"/>
</svg>
