<svg width="15" height="17" fill="none">
<path d="M1.54447 3.449H0.514823C0.378283 3.449 0.247336 3.3888 0.150788 3.28164C0.0542401 3.17449 0 3.02915 0 2.87761C0 2.72607 0.0542401 2.58074 0.150788 2.47358C0.247336 2.36642 0.378283 2.30623 0.514823 2.30623H4.63341V0.590919C4.63341 0.439377 4.68765 0.294043 4.78419 0.186887C4.88074 0.0797309 5.01169 0.0195313 5.14823 0.0195312H9.26681C9.40335 0.0195313 9.5343 0.0797309 9.63085 0.186887C9.7274 0.294043 9.78164 0.439377 9.78164 0.590919V2.30623H13.9002C14.0368 2.30623 14.1677 2.36642 14.2643 2.47358C14.3608 2.58074 14.415 2.72607 14.415 2.87761C14.415 3.02915 14.3608 3.17449 14.2643 3.28164C14.1677 3.3888 14.0368 3.449 13.9002 3.449H12.8706V15.4481C12.8706 15.5997 12.8163 15.745 12.7198 15.8522C12.6232 15.9593 12.4923 16.0195 12.3557 16.0195H2.05929C1.92275 16.0195 1.7918 15.9593 1.69526 15.8522C1.59871 15.745 1.54447 15.5997 1.54447 15.4481V3.449ZM8.75199 2.30623V1.16345H5.66305V2.30623H8.75199ZM2.57411 14.8768H11.8409V3.449H2.57411V14.8768ZM5.66305 12.5912C5.52651 12.5912 5.39557 12.531 5.29902 12.4239C5.20247 12.3167 5.14823 12.1714 5.14823 12.0198V6.30594C5.14823 6.1544 5.20247 6.00906 5.29902 5.90191C5.39557 5.79475 5.52651 5.73455 5.66305 5.73455C5.79959 5.73455 5.93054 5.79475 6.02709 5.90191C6.12363 6.00906 6.17787 6.1544 6.17787 6.30594V12.0198C6.17787 12.1714 6.12363 12.3167 6.02709 12.4239C5.93054 12.531 5.79959 12.5912 5.66305 12.5912ZM8.75199 12.5912C8.61545 12.5912 8.4845 12.531 8.38795 12.4239C8.29141 12.3167 8.23717 12.1714 8.23717 12.0198V6.30594C8.23717 6.1544 8.29141 6.00906 8.38795 5.90191C8.4845 5.79475 8.61545 5.73455 8.75199 5.73455C8.88853 5.73455 9.01948 5.79475 9.11602 5.90191C9.21257 6.00906 9.26681 6.1544 9.26681 6.30594V12.0198C9.26681 12.1714 9.21257 12.3167 9.11602 12.4239C9.01948 12.531 8.88853 12.5912 8.75199 12.5912Z" fill="currentColor"/>
</svg>
