<svg width="15" height="14" viewBox="0 0 15 14" fill="none" xmlns="http://www.w3.org/2000/svg">
<path d="M14.5306 0H13.3061C13.2163 0 13.1429 0.0734694 13.1429 0.163265V10.7347H3.22449V9.2449C3.22449 9.10816 3.06531 9.03061 2.95919 9.11633L0.0632682 11.402C0.0437544 11.4173 0.0279728 11.4368 0.0171194 11.4591C0.00626606 11.4814 0.00062561 11.5058 0.00062561 11.5306C0.00062561 11.5554 0.00626606 11.5798 0.0171194 11.6021C0.0279728 11.6244 0.0437544 11.6439 0.0632682 11.6592L2.95919 13.9449C3.06735 14.0306 3.22449 13.9531 3.22449 13.8163V12.2857H13.3878C14.1082 12.2857 14.6939 11.7 14.6939 10.9796V0.163265C14.6939 0.0734694 14.6204 0 14.5306 0Z" fill="currentColor"/>
</svg>
