<svg width="13" height="13" viewBox="0 0 13 13" fill="none" xmlns="http://www.w3.org/2000/svg">
<path d="M10.0112 8.4509L9.23104 7.67076L10.7913 6.10938C12.0846 4.81724 12.2589 2.89614 11.1819 1.81807C10.1039 0.741104 8.18276 0.915449 6.88952 2.20869L5.33035 3.76897L4.55021 2.98883L6.11049 1.42855C7.83518 -0.295034 10.4548 -0.469378 11.9632 1.03793C13.4716 2.54635 13.2961 5.16593 11.5726 6.89062L10.0123 8.4509H10.0112ZM8.4509 10.0112L6.89062 11.5714C5.16594 13.295 2.54635 13.4694 1.03794 11.9621C-0.470478 10.4537 -0.295029 7.83407 1.42856 6.10938L2.98883 4.5491L3.76897 5.32924L2.20869 6.89062C0.915453 8.18276 0.741108 10.1039 1.81807 11.1819C2.89614 12.2589 4.81725 12.0846 6.11049 10.7913L7.67076 9.23104L8.4509 10.0112ZM8.4509 3.76897L9.23104 4.5491L4.54911 9.23104L3.76897 8.4509L8.4509 3.76897Z" fill="#303030"/>
</svg>
