<svg width="15" height="14" viewBox="0 0 15 14" fill="none" xmlns="http://www.w3.org/2000/svg">
<g clip-path="url(#clip0_6_8)">
<path d="M9.5399 0.76849L4.62327 5.68509C2.56594 7.74759 1.00796 10.2536 0.0686589 13.0112C0.0238649 13.1416 0.0167308 13.282 0.0480745 13.4163C0.0794183 13.5506 0.147971 13.6733 0.245874 13.7705L0.248444 13.773C0.316573 13.8417 0.397602 13.8962 0.48687 13.9334C0.576139 13.9706 0.671884 13.9898 0.7686 13.9899C0.849982 13.9898 0.930804 13.9764 1.00784 13.9502C3.76542 13.0109 6.27143 11.4529 8.33392 9.39556L13.2504 4.47899C13.7424 3.98695 14.0188 3.3196 14.0188 2.62375C14.0188 1.9279 13.7424 1.26055 13.2504 0.768505C13.0068 0.52487 12.7175 0.331608 12.3992 0.199753C12.0809 0.0678975 11.7397 3.18889e-05 11.3951 3.05176e-05C10.6993 2.77481e-05 10.0319 0.276451 9.5399 0.76849V0.76849ZM7.66546 8.72725C5.80715 10.5807 3.56894 12.009 1.10519 12.9137C2.00985 10.4499 3.43815 8.21171 5.29158 6.3534L8.22041 3.42459L10.5943 5.79845L7.66546 8.72725ZM12.5821 3.81068L11.2626 5.13014L8.88872 2.75628L10.2082 1.4368C10.364 1.28056 10.5491 1.15656 10.7528 1.0719C10.9566 0.987247 11.175 0.943591 11.3956 0.943431C11.6163 0.943272 11.8348 0.986613 12.0387 1.07098C12.2425 1.15534 12.4278 1.27907 12.5838 1.43508C12.7398 1.5911 12.8635 1.77635 12.9479 1.98022C13.0323 2.1841 13.0756 2.40261 13.0754 2.62325C13.0753 2.84389 13.0316 3.06233 12.947 3.26608C12.8623 3.46983 12.7383 3.6549 12.5821 3.81068Z" fill="#303030"/>
</g>
<defs>
<clipPath id="clip0_6_8">
<rect width="14.0295" height="14" fill="white"/>
</clipPath>
</defs>
</svg>
