<svg width="14" height="14" fill="none">
<path d="M13.7098 6.73431L7.27139 0.289719C7.15574 0.175024 7.01381 0.0903411 6.85796 0.0430465C6.7021 -0.0042481 6.53704 -0.0127204 6.37716 0.0183676L1.40033 1.01743C1.30596 1.03628 1.21929 1.08265 1.15124 1.1507C1.08319 1.21874 1.03682 1.30542 1.01798 1.39979L0.0189107 6.37662C-0.0127604 6.53554 -0.00455265 6.69983 0.0428001 6.8548C0.0901529 7.00978 0.175174 7.1506 0.290262 7.26468L6.73485 13.7093C6.82603 13.8014 6.93457 13.8745 7.05418 13.9244C7.1738 13.9743 7.30212 14 7.43173 14C7.56134 14 7.68966 13.9743 7.80928 13.9244C7.92889 13.8745 8.03743 13.8014 8.12861 13.7093L13.7098 8.12807C13.8019 8.03689 13.875 7.92835 13.9249 7.80873C13.9748 7.68912 14.0005 7.5608 14.0005 7.43119C14.0005 7.30158 13.9748 7.17326 13.9249 7.05364C13.875 6.93402 13.8019 6.82549 13.7098 6.73431V6.73431ZM7.43173 13.0124L0.987141 6.5678L1.91837 1.91783L6.56834 0.986598L13.0129 7.43119L7.43173 13.0124ZM4.82923 4.08863C4.82923 4.235 4.78582 4.37808 4.70451 4.49978C4.62319 4.62148 4.50761 4.71634 4.37238 4.77235C4.23716 4.82836 4.08836 4.84302 3.9448 4.81446C3.80125 4.78591 3.66938 4.71543 3.56588 4.61193C3.46239 4.50843 3.3919 4.37657 3.36335 4.23301C3.33479 4.08946 3.34945 3.94066 3.40546 3.80543C3.46147 3.6702 3.55633 3.55462 3.67803 3.47331C3.79973 3.39199 3.94281 3.34859 4.08918 3.34859C4.28545 3.34859 4.47369 3.42656 4.61247 3.56534C4.75126 3.70413 4.82923 3.89236 4.82923 4.08863Z" fill="currentColor"/>
</svg>
